<?xml version="1.0" encoding="utf-8" standalone="no"?>
<!DOCTYPE svg PUBLIC "-//W3C//DTD SVG 1.1//EN"
  "http://www.w3.org/Graphics/SVG/1.1/DTD/svg11.dtd">
<!-- Created with matplotlib (https://matplotlib.org/) -->
<svg height="432pt" version="1.1" viewBox="0 0 432 432" width="432pt" xmlns="http://www.w3.org/2000/svg" xmlns:xlink="http://www.w3.org/1999/xlink">
 <defs>
  <style type="text/css">
*{stroke-linecap:butt;stroke-linejoin:round;}
  </style>
 </defs>
 <g id="figure_1">
  <g id="patch_1">
   <path d="M 0 432 
L 432 432 
L 432 0 
L 0 0 
z
" style="fill:#ffffff;"/>
  </g>
  <g id="axes_1">
   <g id="patch_2">
    <path d="M 58.32 378 
L 384.48 378 
L 384.48 51.84 
L 58.32 51.84 
z
" style="fill:#ffffff;"/>
   </g>
   <g id="PathCollection_1">
    <defs>
     <path d="M 0 3 
C 0.795609 3 1.55874 2.683901 2.12132 2.12132 
C 2.683901 1.55874 3 0.795609 3 0 
C 3 -0.795609 2.683901 -1.55874 2.12132 -2.12132 
C 1.55874 -2.683901 0.795609 -3 0 -3 
C -0.795609 -3 -1.55874 -2.683901 -2.12132 -2.12132 
C -2.683901 -1.55874 -3 -0.795609 -3 0 
C -3 0.795609 -2.683901 1.55874 -2.12132 2.12132 
C -1.55874 2.683901 -0.795609 3 0 3 
z
" id="m044f224b84" style="stroke:#1f77b4;"/>
    </defs>
    <g clip-path="url(#pb9a5720ba3)">
     <use style="fill:#1f77b4;stroke:#1f77b4;" x="165.619471" xlink:href="#m044f224b84" y="275.440257"/>
     <use style="fill:#1f77b4;stroke:#1f77b4;" x="183.37977" xlink:href="#m044f224b84" y="280.563002"/>
     <use style="fill:#1f77b4;stroke:#1f77b4;" x="159.62399" xlink:href="#m044f224b84" y="225.664161"/>
     <use style="fill:#1f77b4;stroke:#1f77b4;" x="161.80049" xlink:href="#m044f224b84" y="230.297527"/>
     <use style="fill:#1f77b4;stroke:#1f77b4;" x="191.968777" xlink:href="#m044f224b84" y="192.192186"/>
     <use style="fill:#1f77b4;stroke:#1f77b4;" x="114.683509" xlink:href="#m044f224b84" y="265.38166"/>
     <use style="fill:#1f77b4;stroke:#1f77b4;" x="162.477507" xlink:href="#m044f224b84" y="292.063382"/>
     <use style="fill:#1f77b4;stroke:#1f77b4;" x="153.962666" xlink:href="#m044f224b84" y="219.933602"/>
     <use style="fill:#1f77b4;stroke:#1f77b4;" x="185.550294" xlink:href="#m044f224b84" y="208.558427"/>
     <use style="fill:#1f77b4;stroke:#1f77b4;" x="167.288168" xlink:href="#m044f224b84" y="183.613772"/>
     <use style="fill:#1f77b4;stroke:#1f77b4;" x="168.319378" xlink:href="#m044f224b84" y="265.830774"/>
     <use style="fill:#1f77b4;stroke:#1f77b4;" x="156.197549" xlink:href="#m044f224b84" y="261.854979"/>
     <use style="fill:#1f77b4;stroke:#1f77b4;" x="161.442291" xlink:href="#m044f224b84" y="218.427399"/>
     <use style="fill:#1f77b4;stroke:#1f77b4;" x="167.3765" xlink:href="#m044f224b84" y="269.781098"/>
     <use style="fill:#1f77b4;stroke:#1f77b4;" x="158.95033" xlink:href="#m044f224b84" y="268.89744"/>
     <use style="fill:#1f77b4;stroke:#1f77b4;" x="117.757058" xlink:href="#m044f224b84" y="269.560573"/>
     <use style="fill:#1f77b4;stroke:#1f77b4;" x="159.275249" xlink:href="#m044f224b84" y="197.602084"/>
     <use style="fill:#1f77b4;stroke:#1f77b4;" x="170.778276" xlink:href="#m044f224b84" y="203.46146"/>
     <use style="fill:#1f77b4;stroke:#1f77b4;" x="160.999353" xlink:href="#m044f224b84" y="273.028971"/>
     <use style="fill:#1f77b4;stroke:#1f77b4;" x="121.28342" xlink:href="#m044f224b84" y="236.550783"/>
     <use style="fill:#1f77b4;stroke:#1f77b4;" x="162.874976" xlink:href="#m044f224b84" y="229.38638"/>
     <use style="fill:#1f77b4;stroke:#1f77b4;" x="169.689094" xlink:href="#m044f224b84" y="362.569086"/>
     <use style="fill:#1f77b4;stroke:#1f77b4;" x="166.200693" xlink:href="#m044f224b84" y="229.161693"/>
     <use style="fill:#1f77b4;stroke:#1f77b4;" x="156.349309" xlink:href="#m044f224b84" y="234.822826"/>
     <use style="fill:#1f77b4;stroke:#1f77b4;" x="338.705628" xlink:href="#m044f224b84" y="144.419899"/>
     <use style="fill:#1f77b4;stroke:#1f77b4;" x="156.015598" xlink:href="#m044f224b84" y="283.041137"/>
     <use style="fill:#1f77b4;stroke:#1f77b4;" x="181.276934" xlink:href="#m044f224b84" y="159.067596"/>
     <use style="fill:#1f77b4;stroke:#1f77b4;" x="157.335065" xlink:href="#m044f224b84" y="226.232786"/>
     <use style="fill:#1f77b4;stroke:#1f77b4;" x="180.034229" xlink:href="#m044f224b84" y="161.657936"/>
     <use style="fill:#1f77b4;stroke:#1f77b4;" x="180.553121" xlink:href="#m044f224b84" y="150.104647"/>
     <use style="fill:#1f77b4;stroke:#1f77b4;" x="176.077983" xlink:href="#m044f224b84" y="223.719827"/>
     <use style="fill:#1f77b4;stroke:#1f77b4;" x="170.264271" xlink:href="#m044f224b84" y="206.027996"/>
     <use style="fill:#1f77b4;stroke:#1f77b4;" x="179.13123" xlink:href="#m044f224b84" y="188.693244"/>
     <use style="fill:#1f77b4;stroke:#1f77b4;" x="174.677094" xlink:href="#m044f224b84" y="192.106732"/>
     <use style="fill:#1f77b4;stroke:#1f77b4;" x="166.535017" xlink:href="#m044f224b84" y="267.897308"/>
     <use style="fill:#1f77b4;stroke:#1f77b4;" x="160.702324" xlink:href="#m044f224b84" y="203.753169"/>
     <use style="fill:#1f77b4;stroke:#1f77b4;" x="187.965755" xlink:href="#m044f224b84" y="180.147038"/>
     <use style="fill:#1f77b4;stroke:#1f77b4;" x="156.301446" xlink:href="#m044f224b84" y="207.942456"/>
     <use style="fill:#1f77b4;stroke:#1f77b4;" x="171.308001" xlink:href="#m044f224b84" y="221.569849"/>
     <use style="fill:#1f77b4;stroke:#1f77b4;" x="166.003674" xlink:href="#m044f224b84" y="219.483466"/>
     <use style="fill:#1f77b4;stroke:#1f77b4;" x="175.121847" xlink:href="#m044f224b84" y="277.517107"/>
     <use style="fill:#1f77b4;stroke:#1f77b4;" x="158.013204" xlink:href="#m044f224b84" y="218.843238"/>
     <use style="fill:#1f77b4;stroke:#1f77b4;" x="163.79683" xlink:href="#m044f224b84" y="239.909767"/>
     <use style="fill:#1f77b4;stroke:#1f77b4;" x="174.082557" xlink:href="#m044f224b84" y="214.46709"/>
     <use style="fill:#1f77b4;stroke:#1f77b4;" x="158.650103" xlink:href="#m044f224b84" y="271.006902"/>
     <use style="fill:#1f77b4;stroke:#1f77b4;" x="117.390201" xlink:href="#m044f224b84" y="234.309298"/>
     <use style="fill:#1f77b4;stroke:#1f77b4;" x="160.124595" xlink:href="#m044f224b84" y="224.146225"/>
     <use style="fill:#1f77b4;stroke:#1f77b4;" x="153.957894" xlink:href="#m044f224b84" y="209.124962"/>
     <use style="fill:#1f77b4;stroke:#1f77b4;" x="161.582647" xlink:href="#m044f224b84" y="215.682573"/>
     <use style="fill:#1f77b4;stroke:#1f77b4;" x="168.430445" xlink:href="#m044f224b84" y="215.911078"/>
     <use style="fill:#1f77b4;stroke:#1f77b4;" x="177.216424" xlink:href="#m044f224b84" y="213.838787"/>
     <use style="fill:#1f77b4;stroke:#1f77b4;" x="164.670976" xlink:href="#m044f224b84" y="143.480532"/>
     <use style="fill:#1f77b4;stroke:#1f77b4;" x="153.006668" xlink:href="#m044f224b84" y="229.135823"/>
     <use style="fill:#1f77b4;stroke:#1f77b4;" x="160.04156" xlink:href="#m044f224b84" y="208.28563"/>
     <use style="fill:#1f77b4;stroke:#1f77b4;" x="170.303302" xlink:href="#m044f224b84" y="225.559378"/>
     <use style="fill:#1f77b4;stroke:#1f77b4;" x="166.131184" xlink:href="#m044f224b84" y="219.499282"/>
     <use style="fill:#1f77b4;stroke:#1f77b4;" x="157.278874" xlink:href="#m044f224b84" y="259.325096"/>
     <use style="fill:#1f77b4;stroke:#1f77b4;" x="157.451175" xlink:href="#m044f224b84" y="226.780262"/>
     <use style="fill:#1f77b4;stroke:#1f77b4;" x="155.894356" xlink:href="#m044f224b84" y="306.986262"/>
     <use style="fill:#1f77b4;stroke:#1f77b4;" x="176.640861" xlink:href="#m044f224b84" y="285.62791"/>
     <use style="fill:#1f77b4;stroke:#1f77b4;" x="166.372651" xlink:href="#m044f224b84" y="274.330088"/>
     <use style="fill:#1f77b4;stroke:#1f77b4;" x="156.680896" xlink:href="#m044f224b84" y="265.257796"/>
     <use style="fill:#1f77b4;stroke:#1f77b4;" x="153.024703" xlink:href="#m044f224b84" y="283.842549"/>
     <use style="fill:#1f77b4;stroke:#1f77b4;" x="106.855592" xlink:href="#m044f224b84" y="278.683249"/>
     <use style="fill:#1f77b4;stroke:#1f77b4;" x="163.311529" xlink:href="#m044f224b84" y="240.403947"/>
     <use style="fill:#1f77b4;stroke:#1f77b4;" x="172.51898" xlink:href="#m044f224b84" y="173.655334"/>
     <use style="fill:#1f77b4;stroke:#1f77b4;" x="186.425962" xlink:href="#m044f224b84" y="214.731479"/>
     <use style="fill:#1f77b4;stroke:#1f77b4;" x="184.263195" xlink:href="#m044f224b84" y="175.013779"/>
     <use style="fill:#1f77b4;stroke:#1f77b4;" x="176.511134" xlink:href="#m044f224b84" y="204.405103"/>
     <use style="fill:#1f77b4;stroke:#1f77b4;" x="165.582338" xlink:href="#m044f224b84" y="206.791397"/>
     <use style="fill:#1f77b4;stroke:#1f77b4;" x="229.548833" xlink:href="#m044f224b84" y="191.75661"/>
     <use style="fill:#1f77b4;stroke:#1f77b4;" x="183.535541" xlink:href="#m044f224b84" y="181.128818"/>
     <use style="fill:#1f77b4;stroke:#1f77b4;" x="171.988059" xlink:href="#m044f224b84" y="229.693769"/>
     <use style="fill:#1f77b4;stroke:#1f77b4;" x="168.100978" xlink:href="#m044f224b84" y="173.862394"/>
     <use style="fill:#1f77b4;stroke:#1f77b4;" x="159.839183" xlink:href="#m044f224b84" y="264.466851"/>
     <use style="fill:#1f77b4;stroke:#1f77b4;" x="200.868185" xlink:href="#m044f224b84" y="217.217336"/>
     <use style="fill:#1f77b4;stroke:#1f77b4;" x="148.101605" xlink:href="#m044f224b84" y="272.423304"/>
     <use style="fill:#1f77b4;stroke:#1f77b4;" x="211.414353" xlink:href="#m044f224b84" y="196.115785"/>
     <use style="fill:#1f77b4;stroke:#1f77b4;" x="151.775466" xlink:href="#m044f224b84" y="208.350316"/>
     <use style="fill:#1f77b4;stroke:#1f77b4;" x="175.810804" xlink:href="#m044f224b84" y="210.613267"/>
     <use style="fill:#1f77b4;stroke:#1f77b4;" x="166.758238" xlink:href="#m044f224b84" y="197.365183"/>
     <use style="fill:#1f77b4;stroke:#1f77b4;" x="186.225137" xlink:href="#m044f224b84" y="219.379028"/>
     <use style="fill:#1f77b4;stroke:#1f77b4;" x="205.878792" xlink:href="#m044f224b84" y="185.24417"/>
     <use style="fill:#1f77b4;stroke:#1f77b4;" x="268.531998" xlink:href="#m044f224b84" y="167.911341"/>
     <use style="fill:#1f77b4;stroke:#1f77b4;" x="181.257269" xlink:href="#m044f224b84" y="170.535384"/>
     <use style="fill:#1f77b4;stroke:#1f77b4;" x="146.0945" xlink:href="#m044f224b84" y="231.045089"/>
     <use style="fill:#1f77b4;stroke:#1f77b4;" x="172.000392" xlink:href="#m044f224b84" y="165.541032"/>
     <use style="fill:#1f77b4;stroke:#1f77b4;" x="213.689124" xlink:href="#m044f224b84" y="187.576378"/>
     <use style="fill:#1f77b4;stroke:#1f77b4;" x="171.791805" xlink:href="#m044f224b84" y="197.509348"/>
     <use style="fill:#1f77b4;stroke:#1f77b4;" x="173.445689" xlink:href="#m044f224b84" y="172.583291"/>
     <use style="fill:#1f77b4;stroke:#1f77b4;" x="156.133786" xlink:href="#m044f224b84" y="223.657714"/>
     <use style="fill:#1f77b4;stroke:#1f77b4;" x="181.744804" xlink:href="#m044f224b84" y="234.629727"/>
     <use style="fill:#1f77b4;stroke:#1f77b4;" x="179.106155" xlink:href="#m044f224b84" y="217.027695"/>
     <use style="fill:#1f77b4;stroke:#1f77b4;" x="160.776315" xlink:href="#m044f224b84" y="206.625346"/>
     <use style="fill:#1f77b4;stroke:#1f77b4;" x="82.315968" xlink:href="#m044f224b84" y="280.520051"/>
     <use style="fill:#1f77b4;stroke:#1f77b4;" x="103.731518" xlink:href="#m044f224b84" y="233.052004"/>
     <use style="fill:#1f77b4;stroke:#1f77b4;" x="168.682589" xlink:href="#m044f224b84" y="204.67845"/>
     <use style="fill:#1f77b4;stroke:#1f77b4;" x="72.289619" xlink:href="#m044f224b84" y="228.433127"/>
     <use style="fill:#1f77b4;stroke:#1f77b4;" x="166.530668" xlink:href="#m044f224b84" y="182.715759"/>
     <use style="fill:#1f77b4;stroke:#1f77b4;" x="173.034443" xlink:href="#m044f224b84" y="215.801122"/>
     <use style="fill:#1f77b4;stroke:#1f77b4;" x="177.559276" xlink:href="#m044f224b84" y="187.626874"/>
     <use style="fill:#1f77b4;stroke:#1f77b4;" x="157.416703" xlink:href="#m044f224b84" y="275.422888"/>
     <use style="fill:#1f77b4;stroke:#1f77b4;" x="156.670318" xlink:href="#m044f224b84" y="238.868023"/>
     <use style="fill:#1f77b4;stroke:#1f77b4;" x="166.891998" xlink:href="#m044f224b84" y="309.872034"/>
     <use style="fill:#1f77b4;stroke:#1f77b4;" x="194.235745" xlink:href="#m044f224b84" y="214.406644"/>
     <use style="fill:#1f77b4;stroke:#1f77b4;" x="107.58886" xlink:href="#m044f224b84" y="226.537287"/>
     <use style="fill:#1f77b4;stroke:#1f77b4;" x="174.112364" xlink:href="#m044f224b84" y="225.928212"/>
     <use style="fill:#1f77b4;stroke:#1f77b4;" x="156.735613" xlink:href="#m044f224b84" y="242.505875"/>
     <use style="fill:#1f77b4;stroke:#1f77b4;" x="167.723958" xlink:href="#m044f224b84" y="219.811689"/>
     <use style="fill:#1f77b4;stroke:#1f77b4;" x="169.265532" xlink:href="#m044f224b84" y="209.953183"/>
     <use style="fill:#1f77b4;stroke:#1f77b4;" x="170.113718" xlink:href="#m044f224b84" y="172.719954"/>
     <use style="fill:#1f77b4;stroke:#1f77b4;" x="179.60063" xlink:href="#m044f224b84" y="271.934938"/>
     <use style="fill:#1f77b4;stroke:#1f77b4;" x="176.91203" xlink:href="#m044f224b84" y="179.805277"/>
     <use style="fill:#1f77b4;stroke:#1f77b4;" x="103.828562" xlink:href="#m044f224b84" y="227.296049"/>
     <use style="fill:#1f77b4;stroke:#1f77b4;" x="164.104284" xlink:href="#m044f224b84" y="227.761067"/>
     <use style="fill:#1f77b4;stroke:#1f77b4;" x="171.276868" xlink:href="#m044f224b84" y="201.010915"/>
     <use style="fill:#1f77b4;stroke:#1f77b4;" x="220.764387" xlink:href="#m044f224b84" y="269.328663"/>
     <use style="fill:#1f77b4;stroke:#1f77b4;" x="164.248032" xlink:href="#m044f224b84" y="225.048494"/>
     <use style="fill:#1f77b4;stroke:#1f77b4;" x="162.187846" xlink:href="#m044f224b84" y="263.74665"/>
     <use style="fill:#1f77b4;stroke:#1f77b4;" x="105.473261" xlink:href="#m044f224b84" y="229.858941"/>
     <use style="fill:#1f77b4;stroke:#1f77b4;" x="169.512558" xlink:href="#m044f224b84" y="232.849053"/>
     <use style="fill:#1f77b4;stroke:#1f77b4;" x="155.246751" xlink:href="#m044f224b84" y="238.951295"/>
     <use style="fill:#1f77b4;stroke:#1f77b4;" x="153.571609" xlink:href="#m044f224b84" y="264.395733"/>
     <use style="fill:#1f77b4;stroke:#1f77b4;" x="169.635768" xlink:href="#m044f224b84" y="232.74684"/>
     <use style="fill:#1f77b4;stroke:#1f77b4;" x="162.90247" xlink:href="#m044f224b84" y="227.091967"/>
     <use style="fill:#1f77b4;stroke:#1f77b4;" x="183.606454" xlink:href="#m044f224b84" y="187.910802"/>
     <use style="fill:#1f77b4;stroke:#1f77b4;" x="210.888391" xlink:href="#m044f224b84" y="202.441046"/>
     <use style="fill:#1f77b4;stroke:#1f77b4;" x="188.365301" xlink:href="#m044f224b84" y="276.632211"/>
     <use style="fill:#1f77b4;stroke:#1f77b4;" x="154.55409" xlink:href="#m044f224b84" y="217.885545"/>
     <use style="fill:#1f77b4;stroke:#1f77b4;" x="162.773508" xlink:href="#m044f224b84" y="213.6395"/>
     <use style="fill:#1f77b4;stroke:#1f77b4;" x="178.430993" xlink:href="#m044f224b84" y="158.565764"/>
     <use style="fill:#1f77b4;stroke:#1f77b4;" x="178.051257" xlink:href="#m044f224b84" y="220.655373"/>
     <use style="fill:#1f77b4;stroke:#1f77b4;" x="169.941594" xlink:href="#m044f224b84" y="284.461043"/>
     <use style="fill:#1f77b4;stroke:#1f77b4;" x="159.20812" xlink:href="#m044f224b84" y="285.794918"/>
     <use style="fill:#1f77b4;stroke:#1f77b4;" x="180.973552" xlink:href="#m044f224b84" y="272.719949"/>
     <use style="fill:#1f77b4;stroke:#1f77b4;" x="156.492236" xlink:href="#m044f224b84" y="232.793437"/>
     <use style="fill:#1f77b4;stroke:#1f77b4;" x="119.332765" xlink:href="#m044f224b84" y="276.598314"/>
     <use style="fill:#1f77b4;stroke:#1f77b4;" x="159.689699" xlink:href="#m044f224b84" y="285.522156"/>
     <use style="fill:#1f77b4;stroke:#1f77b4;" x="109.572457" xlink:href="#m044f224b84" y="215.249453"/>
     <use style="fill:#1f77b4;stroke:#1f77b4;" x="170.146364" xlink:href="#m044f224b84" y="213.090817"/>
     <use style="fill:#1f77b4;stroke:#1f77b4;" x="181.514341" xlink:href="#m044f224b84" y="181.278099"/>
     <use style="fill:#1f77b4;stroke:#1f77b4;" x="112.503265" xlink:href="#m044f224b84" y="217.603821"/>
     <use style="fill:#1f77b4;stroke:#1f77b4;" x="170.447978" xlink:href="#m044f224b84" y="196.122031"/>
     <use style="fill:#1f77b4;stroke:#1f77b4;" x="166.747522" xlink:href="#m044f224b84" y="230.828197"/>
     <use style="fill:#1f77b4;stroke:#1f77b4;" x="107.943475" xlink:href="#m044f224b84" y="277.5376"/>
     <use style="fill:#1f77b4;stroke:#1f77b4;" x="153.230435" xlink:href="#m044f224b84" y="230.629907"/>
     <use style="fill:#1f77b4;stroke:#1f77b4;" x="153.763821" xlink:href="#m044f224b84" y="269.281408"/>
     <use style="fill:#1f77b4;stroke:#1f77b4;" x="105.094082" xlink:href="#m044f224b84" y="283.812043"/>
     <use style="fill:#1f77b4;stroke:#1f77b4;" x="119.86155" xlink:href="#m044f224b84" y="280.153097"/>
     <use style="fill:#1f77b4;stroke:#1f77b4;" x="163.468693" xlink:href="#m044f224b84" y="227.798511"/>
     <use style="fill:#1f77b4;stroke:#1f77b4;" x="181.434365" xlink:href="#m044f224b84" y="164.420706"/>
     <use style="fill:#1f77b4;stroke:#1f77b4;" x="182.558265" xlink:href="#m044f224b84" y="171.607749"/>
     <use style="fill:#1f77b4;stroke:#1f77b4;" x="173.642539" xlink:href="#m044f224b84" y="200.313829"/>
     <use style="fill:#1f77b4;stroke:#1f77b4;" x="157.499903" xlink:href="#m044f224b84" y="225.709241"/>
     <use style="fill:#1f77b4;stroke:#1f77b4;" x="179.198161" xlink:href="#m044f224b84" y="215.533978"/>
     <use style="fill:#1f77b4;stroke:#1f77b4;" x="178.292364" xlink:href="#m044f224b84" y="196.687636"/>
     <use style="fill:#1f77b4;stroke:#1f77b4;" x="196.432094" xlink:href="#m044f224b84" y="290.243011"/>
     <use style="fill:#1f77b4;stroke:#1f77b4;" x="151.136116" xlink:href="#m044f224b84" y="231.362137"/>
     <use style="fill:#1f77b4;stroke:#1f77b4;" x="174.553174" xlink:href="#m044f224b84" y="205.507884"/>
     <use style="fill:#1f77b4;stroke:#1f77b4;" x="166.85649" xlink:href="#m044f224b84" y="198.549635"/>
     <use style="fill:#1f77b4;stroke:#1f77b4;" x="153.441522" xlink:href="#m044f224b84" y="258.089091"/>
     <use style="fill:#1f77b4;stroke:#1f77b4;" x="147.077532" xlink:href="#m044f224b84" y="266.902381"/>
     <use style="fill:#1f77b4;stroke:#1f77b4;" x="149.120014" xlink:href="#m044f224b84" y="270.388402"/>
     <use style="fill:#1f77b4;stroke:#1f77b4;" x="128.573907" xlink:href="#m044f224b84" y="257.463919"/>
     <use style="fill:#1f77b4;stroke:#1f77b4;" x="158.191855" xlink:href="#m044f224b84" y="240.617027"/>
     <use style="fill:#1f77b4;stroke:#1f77b4;" x="150.948099" xlink:href="#m044f224b84" y="262.768515"/>
     <use style="fill:#1f77b4;stroke:#1f77b4;" x="151.255565" xlink:href="#m044f224b84" y="244.747888"/>
     <use style="fill:#1f77b4;stroke:#1f77b4;" x="145.597233" xlink:href="#m044f224b84" y="243.149382"/>
     <use style="fill:#1f77b4;stroke:#1f77b4;" x="145.850108" xlink:href="#m044f224b84" y="245.17336"/>
     <use style="fill:#1f77b4;stroke:#1f77b4;" x="163.620714" xlink:href="#m044f224b84" y="244.358847"/>
     <use style="fill:#1f77b4;stroke:#1f77b4;" x="167.798858" xlink:href="#m044f224b84" y="257.478472"/>
     <use style="fill:#1f77b4;stroke:#1f77b4;" x="148.034364" xlink:href="#m044f224b84" y="256.826007"/>
     <use style="fill:#1f77b4;stroke:#1f77b4;" x="164.309907" xlink:href="#m044f224b84" y="258.173912"/>
     <use style="fill:#1f77b4;stroke:#1f77b4;" x="150.920065" xlink:href="#m044f224b84" y="238.797213"/>
     <use style="fill:#1f77b4;stroke:#1f77b4;" x="170.947952" xlink:href="#m044f224b84" y="240.012534"/>
     <use style="fill:#1f77b4;stroke:#1f77b4;" x="128.489249" xlink:href="#m044f224b84" y="228.846419"/>
     <use style="fill:#1f77b4;stroke:#1f77b4;" x="151.065113" xlink:href="#m044f224b84" y="258.049029"/>
     <use style="fill:#1f77b4;stroke:#1f77b4;" x="154.947254" xlink:href="#m044f224b84" y="281.188289"/>
     <use style="fill:#1f77b4;stroke:#1f77b4;" x="152.485582" xlink:href="#m044f224b84" y="239.948296"/>
     <use style="fill:#1f77b4;stroke:#1f77b4;" x="147.010455" xlink:href="#m044f224b84" y="237.369445"/>
     <use style="fill:#1f77b4;stroke:#1f77b4;" x="146.658755" xlink:href="#m044f224b84" y="230.761081"/>
     <use style="fill:#1f77b4;stroke:#1f77b4;" x="147.991499" xlink:href="#m044f224b84" y="259.967924"/>
     <use style="fill:#1f77b4;stroke:#1f77b4;" x="148.570917" xlink:href="#m044f224b84" y="264.1369"/>
     <use style="fill:#1f77b4;stroke:#1f77b4;" x="112.234661" xlink:href="#m044f224b84" y="264.560479"/>
     <use style="fill:#1f77b4;stroke:#1f77b4;" x="163.827706" xlink:href="#m044f224b84" y="243.93674"/>
     <use style="fill:#1f77b4;stroke:#1f77b4;" x="154.213236" xlink:href="#m044f224b84" y="261.982884"/>
     <use style="fill:#1f77b4;stroke:#1f77b4;" x="154.212776" xlink:href="#m044f224b84" y="256.039118"/>
     <use style="fill:#1f77b4;stroke:#1f77b4;" x="187.199368" xlink:href="#m044f224b84" y="146.963572"/>
     <use style="fill:#1f77b4;stroke:#1f77b4;" x="212.285952" xlink:href="#m044f224b84" y="213.906271"/>
     <use style="fill:#1f77b4;stroke:#1f77b4;" x="156.773866" xlink:href="#m044f224b84" y="271.674832"/>
     <use style="fill:#1f77b4;stroke:#1f77b4;" x="158.785778" xlink:href="#m044f224b84" y="226.255487"/>
     <use style="fill:#1f77b4;stroke:#1f77b4;" x="171.255687" xlink:href="#m044f224b84" y="220.39744"/>
     <use style="fill:#1f77b4;stroke:#1f77b4;" x="152.177839" xlink:href="#m044f224b84" y="266.176769"/>
     <use style="fill:#1f77b4;stroke:#1f77b4;" x="185.574086" xlink:href="#m044f224b84" y="211.330786"/>
     <use style="fill:#1f77b4;stroke:#1f77b4;" x="167.392655" xlink:href="#m044f224b84" y="199.956205"/>
     <use style="fill:#1f77b4;stroke:#1f77b4;" x="166.01485" xlink:href="#m044f224b84" y="234.408823"/>
     <use style="fill:#1f77b4;stroke:#1f77b4;" x="167.449234" xlink:href="#m044f224b84" y="98.547429"/>
     <use style="fill:#1f77b4;stroke:#1f77b4;" x="178.139324" xlink:href="#m044f224b84" y="182.460433"/>
     <use style="fill:#1f77b4;stroke:#1f77b4;" x="159.997175" xlink:href="#m044f224b84" y="203.122759"/>
     <use style="fill:#1f77b4;stroke:#1f77b4;" x="157.048774" xlink:href="#m044f224b84" y="206.491229"/>
     <use style="fill:#1f77b4;stroke:#1f77b4;" x="162.69198" xlink:href="#m044f224b84" y="213.418022"/>
     <use style="fill:#1f77b4;stroke:#1f77b4;" x="163.410263" xlink:href="#m044f224b84" y="261.068814"/>
     <use style="fill:#1f77b4;stroke:#1f77b4;" x="167.017599" xlink:href="#m044f224b84" y="229.999562"/>
     <use style="fill:#1f77b4;stroke:#1f77b4;" x="157.323573" xlink:href="#m044f224b84" y="67.270914"/>
     <use style="fill:#1f77b4;stroke:#1f77b4;" x="162.482682" xlink:href="#m044f224b84" y="295.126308"/>
     <use style="fill:#1f77b4;stroke:#1f77b4;" x="151.217686" xlink:href="#m044f224b84" y="259.269916"/>
     <use style="fill:#1f77b4;stroke:#1f77b4;" x="163.420107" xlink:href="#m044f224b84" y="223.41842"/>
     <use style="fill:#1f77b4;stroke:#1f77b4;" x="162.828281" xlink:href="#m044f224b84" y="278.60154"/>
     <use style="fill:#1f77b4;stroke:#1f77b4;" x="167.421057" xlink:href="#m044f224b84" y="214.322791"/>
     <use style="fill:#1f77b4;stroke:#1f77b4;" x="170.036292" xlink:href="#m044f224b84" y="165.687975"/>
     <use style="fill:#1f77b4;stroke:#1f77b4;" x="156.731315" xlink:href="#m044f224b84" y="262.724846"/>
     <use style="fill:#1f77b4;stroke:#1f77b4;" x="181.62385" xlink:href="#m044f224b84" y="218.109298"/>
     <use style="fill:#1f77b4;stroke:#1f77b4;" x="154.9539" xlink:href="#m044f224b84" y="282.369216"/>
     <use style="fill:#1f77b4;stroke:#1f77b4;" x="176.336244" xlink:href="#m044f224b84" y="281.413053"/>
     <use style="fill:#1f77b4;stroke:#1f77b4;" x="166.065534" xlink:href="#m044f224b84" y="267.004835"/>
     <use style="fill:#1f77b4;stroke:#1f77b4;" x="177.595306" xlink:href="#m044f224b84" y="162.494145"/>
     <use style="fill:#1f77b4;stroke:#1f77b4;" x="179.984047" xlink:href="#m044f224b84" y="283.605357"/>
     <use style="fill:#1f77b4;stroke:#1f77b4;" x="175.109465" xlink:href="#m044f224b84" y="301.966961"/>
     <use style="fill:#1f77b4;stroke:#1f77b4;" x="173.872834" xlink:href="#m044f224b84" y="191.608878"/>
     <use style="fill:#1f77b4;stroke:#1f77b4;" x="175.675235" xlink:href="#m044f224b84" y="206.799098"/>
     <use style="fill:#1f77b4;stroke:#1f77b4;" x="164.910283" xlink:href="#m044f224b84" y="199.764997"/>
     <use style="fill:#1f77b4;stroke:#1f77b4;" x="156.346103" xlink:href="#m044f224b84" y="191.484522"/>
     <use style="fill:#1f77b4;stroke:#1f77b4;" x="169.23915" xlink:href="#m044f224b84" y="210.496511"/>
     <use style="fill:#1f77b4;stroke:#1f77b4;" x="177.863356" xlink:href="#m044f224b84" y="188.196426"/>
     <use style="fill:#1f77b4;stroke:#1f77b4;" x="175.318239" xlink:href="#m044f224b84" y="278.326359"/>
     <use style="fill:#1f77b4;stroke:#1f77b4;" x="161.873697" xlink:href="#m044f224b84" y="233.524363"/>
     <use style="fill:#1f77b4;stroke:#1f77b4;" x="184.832303" xlink:href="#m044f224b84" y="184.867502"/>
     <use style="fill:#1f77b4;stroke:#1f77b4;" x="170.72912" xlink:href="#m044f224b84" y="182.298698"/>
     <use style="fill:#1f77b4;stroke:#1f77b4;" x="120.15105" xlink:href="#m044f224b84" y="273.10247"/>
     <use style="fill:#1f77b4;stroke:#1f77b4;" x="159.881694" xlink:href="#m044f224b84" y="231.507127"/>
     <use style="fill:#1f77b4;stroke:#1f77b4;" x="157.897758" xlink:href="#m044f224b84" y="264.860147"/>
     <use style="fill:#1f77b4;stroke:#1f77b4;" x="156.60735" xlink:href="#m044f224b84" y="224.521304"/>
     <use style="fill:#1f77b4;stroke:#1f77b4;" x="167.693635" xlink:href="#m044f224b84" y="237.011866"/>
     <use style="fill:#1f77b4;stroke:#1f77b4;" x="158.665821" xlink:href="#m044f224b84" y="187.170017"/>
     <use style="fill:#1f77b4;stroke:#1f77b4;" x="184.911809" xlink:href="#m044f224b84" y="283.292461"/>
     <use style="fill:#1f77b4;stroke:#1f77b4;" x="190.491458" xlink:href="#m044f224b84" y="189.244925"/>
     <use style="fill:#1f77b4;stroke:#1f77b4;" x="165.332291" xlink:href="#m044f224b84" y="212.524349"/>
     <use style="fill:#1f77b4;stroke:#1f77b4;" x="113.063108" xlink:href="#m044f224b84" y="268.112522"/>
     <use style="fill:#1f77b4;stroke:#1f77b4;" x="179.176719" xlink:href="#m044f224b84" y="228.926066"/>
     <use style="fill:#1f77b4;stroke:#1f77b4;" x="171.800495" xlink:href="#m044f224b84" y="218.447215"/>
     <use style="fill:#1f77b4;stroke:#1f77b4;" x="174.672237" xlink:href="#m044f224b84" y="176.020417"/>
    </g>
   </g>
   <g id="matplotlib.axis_1">
    <g id="xtick_1">
     <g id="line2d_1">
      <path clip-path="url(#pb9a5720ba3)" d="M 73.393302 378 
L 73.393302 51.84 
" style="fill:none;stroke:#b0b0b0;stroke-linecap:square;stroke-width:0.8;"/>
     </g>
     <g id="line2d_2">
      <defs>
       <path d="M 0 0 
L 0 3.5 
" id="mea3014db77" style="stroke:#000000;stroke-width:0.8;"/>
      </defs>
      <g>
       <use style="stroke:#000000;stroke-width:0.8;" x="73.393302" xlink:href="#mea3014db77" y="378"/>
      </g>
     </g>
     <g id="text_1">
      <!-- −1 -->
      <defs>
       <path d="M 10.59375 35.5 
L 73.1875 35.5 
L 73.1875 27.203125 
L 10.59375 27.203125 
z
" id="DejaVuSans-8722"/>
       <path d="M 12.40625 8.296875 
L 28.515625 8.296875 
L 28.515625 63.921875 
L 10.984375 60.40625 
L 10.984375 69.390625 
L 28.421875 72.90625 
L 38.28125 72.90625 
L 38.28125 8.296875 
L 54.390625 8.296875 
L 54.390625 0 
L 12.40625 0 
z
" id="DejaVuSans-49"/>
      </defs>
      <g transform="translate(66.022208 392.598437)scale(0.1 -0.1)">
       <use xlink:href="#DejaVuSans-8722"/>
       <use x="83.789062" xlink:href="#DejaVuSans-49"/>
      </g>
     </g>
    </g>
    <g id="xtick_2">
     <g id="line2d_3">
      <path clip-path="url(#pb9a5720ba3)" d="M 139.218852 378 
L 139.218852 51.84 
" style="fill:none;stroke:#b0b0b0;stroke-linecap:square;stroke-width:0.8;"/>
     </g>
     <g id="line2d_4">
      <g>
       <use style="stroke:#000000;stroke-width:0.8;" x="139.218852" xlink:href="#mea3014db77" y="378"/>
      </g>
     </g>
     <g id="text_2">
      <!-- 0 -->
      <defs>
       <path d="M 31.78125 66.40625 
Q 24.171875 66.40625 20.328125 58.90625 
Q 16.5 51.421875 16.5 36.375 
Q 16.5 21.390625 20.328125 13.890625 
Q 24.171875 6.390625 31.78125 6.390625 
Q 39.453125 6.390625 43.28125 13.890625 
Q 47.125 21.390625 47.125 36.375 
Q 47.125 51.421875 43.28125 58.90625 
Q 39.453125 66.40625 31.78125 66.40625 
z
M 31.78125 74.21875 
Q 44.046875 74.21875 50.515625 64.515625 
Q 56.984375 54.828125 56.984375 36.375 
Q 56.984375 17.96875 50.515625 8.265625 
Q 44.046875 -1.421875 31.78125 -1.421875 
Q 19.53125 -1.421875 13.0625 8.265625 
Q 6.59375 17.96875 6.59375 36.375 
Q 6.59375 54.828125 13.0625 64.515625 
Q 19.53125 74.21875 31.78125 74.21875 
z
" id="DejaVuSans-48"/>
      </defs>
      <g transform="translate(136.037602 392.598437)scale(0.1 -0.1)">
       <use xlink:href="#DejaVuSans-48"/>
      </g>
     </g>
    </g>
    <g id="xtick_3">
     <g id="line2d_5">
      <path clip-path="url(#pb9a5720ba3)" d="M 205.044403 378 
L 205.044403 51.84 
" style="fill:none;stroke:#b0b0b0;stroke-linecap:square;stroke-width:0.8;"/>
     </g>
     <g id="line2d_6">
      <g>
       <use style="stroke:#000000;stroke-width:0.8;" x="205.044403" xlink:href="#mea3014db77" y="378"/>
      </g>
     </g>
     <g id="text_3">
      <!-- 1 -->
      <g transform="translate(201.863153 392.598437)scale(0.1 -0.1)">
       <use xlink:href="#DejaVuSans-49"/>
      </g>
     </g>
    </g>
    <g id="xtick_4">
     <g id="line2d_7">
      <path clip-path="url(#pb9a5720ba3)" d="M 270.869954 378 
L 270.869954 51.84 
" style="fill:none;stroke:#b0b0b0;stroke-linecap:square;stroke-width:0.8;"/>
     </g>
     <g id="line2d_8">
      <g>
       <use style="stroke:#000000;stroke-width:0.8;" x="270.869954" xlink:href="#mea3014db77" y="378"/>
      </g>
     </g>
     <g id="text_4">
      <!-- 2 -->
      <defs>
       <path d="M 19.1875 8.296875 
L 53.609375 8.296875 
L 53.609375 0 
L 7.328125 0 
L 7.328125 8.296875 
Q 12.9375 14.109375 22.625 23.890625 
Q 32.328125 33.6875 34.8125 36.53125 
Q 39.546875 41.84375 41.421875 45.53125 
Q 43.3125 49.21875 43.3125 52.78125 
Q 43.3125 58.59375 39.234375 62.25 
Q 35.15625 65.921875 28.609375 65.921875 
Q 23.96875 65.921875 18.8125 64.3125 
Q 13.671875 62.703125 7.8125 59.421875 
L 7.8125 69.390625 
Q 13.765625 71.78125 18.9375 73 
Q 24.125 74.21875 28.421875 74.21875 
Q 39.75 74.21875 46.484375 68.546875 
Q 53.21875 62.890625 53.21875 53.421875 
Q 53.21875 48.921875 51.53125 44.890625 
Q 49.859375 40.875 45.40625 35.40625 
Q 44.1875 33.984375 37.640625 27.21875 
Q 31.109375 20.453125 19.1875 8.296875 
z
" id="DejaVuSans-50"/>
      </defs>
      <g transform="translate(267.688704 392.598437)scale(0.1 -0.1)">
       <use xlink:href="#DejaVuSans-50"/>
      </g>
     </g>
    </g>
    <g id="xtick_5">
     <g id="line2d_9">
      <path clip-path="url(#pb9a5720ba3)" d="M 336.695504 378 
L 336.695504 51.84 
" style="fill:none;stroke:#b0b0b0;stroke-linecap:square;stroke-width:0.8;"/>
     </g>
     <g id="line2d_10">
      <g>
       <use style="stroke:#000000;stroke-width:0.8;" x="336.695504" xlink:href="#mea3014db77" y="378"/>
      </g>
     </g>
     <g id="text_5">
      <!-- 3 -->
      <defs>
       <path d="M 40.578125 39.3125 
Q 47.65625 37.796875 51.625 33 
Q 55.609375 28.21875 55.609375 21.1875 
Q 55.609375 10.40625 48.1875 4.484375 
Q 40.765625 -1.421875 27.09375 -1.421875 
Q 22.515625 -1.421875 17.65625 -0.515625 
Q 12.796875 0.390625 7.625 2.203125 
L 7.625 11.71875 
Q 11.71875 9.328125 16.59375 8.109375 
Q 21.484375 6.890625 26.8125 6.890625 
Q 36.078125 6.890625 40.9375 10.546875 
Q 45.796875 14.203125 45.796875 21.1875 
Q 45.796875 27.640625 41.28125 31.265625 
Q 36.765625 34.90625 28.71875 34.90625 
L 20.21875 34.90625 
L 20.21875 43.015625 
L 29.109375 43.015625 
Q 36.375 43.015625 40.234375 45.921875 
Q 44.09375 48.828125 44.09375 54.296875 
Q 44.09375 59.90625 40.109375 62.90625 
Q 36.140625 65.921875 28.71875 65.921875 
Q 24.65625 65.921875 20.015625 65.03125 
Q 15.375 64.15625 9.8125 62.3125 
L 9.8125 71.09375 
Q 15.4375 72.65625 20.34375 73.4375 
Q 25.25 74.21875 29.59375 74.21875 
Q 40.828125 74.21875 47.359375 69.109375 
Q 53.90625 64.015625 53.90625 55.328125 
Q 53.90625 49.265625 50.4375 45.09375 
Q 46.96875 40.921875 40.578125 39.3125 
z
" id="DejaVuSans-51"/>
      </defs>
      <g transform="translate(333.514254 392.598437)scale(0.1 -0.1)">
       <use xlink:href="#DejaVuSans-51"/>
      </g>
     </g>
    </g>
    <g id="text_6">
     <!-- MDA -->
     <defs>
      <path d="M 9.8125 72.90625 
L 24.515625 72.90625 
L 43.109375 23.296875 
L 61.8125 72.90625 
L 76.515625 72.90625 
L 76.515625 0 
L 66.890625 0 
L 66.890625 64.015625 
L 48.09375 14.015625 
L 38.1875 14.015625 
L 19.390625 64.015625 
L 19.390625 0 
L 9.8125 0 
z
" id="DejaVuSans-77"/>
      <path d="M 19.671875 64.796875 
L 19.671875 8.109375 
L 31.59375 8.109375 
Q 46.6875 8.109375 53.6875 14.9375 
Q 60.6875 21.78125 60.6875 36.53125 
Q 60.6875 51.171875 53.6875 57.984375 
Q 46.6875 64.796875 31.59375 64.796875 
z
M 9.8125 72.90625 
L 30.078125 72.90625 
Q 51.265625 72.90625 61.171875 64.09375 
Q 71.09375 55.28125 71.09375 36.53125 
Q 71.09375 17.671875 61.125 8.828125 
Q 51.171875 0 30.078125 0 
L 9.8125 0 
z
" id="DejaVuSans-68"/>
      <path d="M 34.1875 63.1875 
L 20.796875 26.90625 
L 47.609375 26.90625 
z
M 28.609375 72.90625 
L 39.796875 72.90625 
L 67.578125 0 
L 57.328125 0 
L 50.6875 18.703125 
L 17.828125 18.703125 
L 11.1875 0 
L 0.78125 0 
z
" id="DejaVuSans-65"/>
     </defs>
     <g transform="translate(209.816406 406.276563)scale(0.1 -0.1)">
      <use xlink:href="#DejaVuSans-77"/>
      <use x="86.279297" xlink:href="#DejaVuSans-68"/>
      <use x="163.265625" xlink:href="#DejaVuSans-65"/>
     </g>
    </g>
   </g>
   <g id="matplotlib.axis_2">
    <g id="ytick_1">
     <g id="line2d_11">
      <path clip-path="url(#pb9a5720ba3)" d="M 58.32 315.44479 
L 384.48 315.44479 
" style="fill:none;stroke:#b0b0b0;stroke-linecap:square;stroke-width:0.8;"/>
     </g>
     <g id="line2d_12">
      <defs>
       <path d="M 0 0 
L -3.5 0 
" id="m9221b605a9" style="stroke:#000000;stroke-width:0.8;"/>
      </defs>
      <g>
       <use style="stroke:#000000;stroke-width:0.8;" x="58.32" xlink:href="#m9221b605a9" y="315.44479"/>
      </g>
     </g>
     <g id="text_7">
      <!-- −1 -->
      <g transform="translate(36.577813 319.244009)scale(0.1 -0.1)">
       <use xlink:href="#DejaVuSans-8722"/>
       <use x="83.789062" xlink:href="#DejaVuSans-49"/>
      </g>
     </g>
    </g>
    <g id="ytick_2">
     <g id="line2d_13">
      <path clip-path="url(#pb9a5720ba3)" d="M 58.32 249.619239 
L 384.48 249.619239 
" style="fill:none;stroke:#b0b0b0;stroke-linecap:square;stroke-width:0.8;"/>
     </g>
     <g id="line2d_14">
      <g>
       <use style="stroke:#000000;stroke-width:0.8;" x="58.32" xlink:href="#m9221b605a9" y="249.619239"/>
      </g>
     </g>
     <g id="text_8">
      <!-- 0 -->
      <g transform="translate(44.9575 253.418458)scale(0.1 -0.1)">
       <use xlink:href="#DejaVuSans-48"/>
      </g>
     </g>
    </g>
    <g id="ytick_3">
     <g id="line2d_15">
      <path clip-path="url(#pb9a5720ba3)" d="M 58.32 183.793688 
L 384.48 183.793688 
" style="fill:none;stroke:#b0b0b0;stroke-linecap:square;stroke-width:0.8;"/>
     </g>
     <g id="line2d_16">
      <g>
       <use style="stroke:#000000;stroke-width:0.8;" x="58.32" xlink:href="#m9221b605a9" y="183.793688"/>
      </g>
     </g>
     <g id="text_9">
      <!-- 1 -->
      <g transform="translate(44.9575 187.592907)scale(0.1 -0.1)">
       <use xlink:href="#DejaVuSans-49"/>
      </g>
     </g>
    </g>
    <g id="ytick_4">
     <g id="line2d_17">
      <path clip-path="url(#pb9a5720ba3)" d="M 58.32 117.968138 
L 384.48 117.968138 
" style="fill:none;stroke:#b0b0b0;stroke-linecap:square;stroke-width:0.8;"/>
     </g>
     <g id="line2d_18">
      <g>
       <use style="stroke:#000000;stroke-width:0.8;" x="58.32" xlink:href="#m9221b605a9" y="117.968138"/>
      </g>
     </g>
     <g id="text_10">
      <!-- 2 -->
      <g transform="translate(44.9575 121.767356)scale(0.1 -0.1)">
       <use xlink:href="#DejaVuSans-50"/>
      </g>
     </g>
    </g>
    <g id="ytick_5">
     <g id="line2d_19">
      <path clip-path="url(#pb9a5720ba3)" d="M 58.32 52.142587 
L 384.48 52.142587 
" style="fill:none;stroke:#b0b0b0;stroke-linecap:square;stroke-width:0.8;"/>
     </g>
     <g id="line2d_20">
      <g>
       <use style="stroke:#000000;stroke-width:0.8;" x="58.32" xlink:href="#m9221b605a9" y="52.142587"/>
      </g>
     </g>
     <g id="text_11">
      <!-- 3 -->
      <g transform="translate(44.9575 55.941806)scale(0.1 -0.1)">
       <use xlink:href="#DejaVuSans-51"/>
      </g>
     </g>
    </g>
    <g id="text_12">
     <!-- HCC_MK -->
     <defs>
      <path d="M 9.8125 72.90625 
L 19.671875 72.90625 
L 19.671875 43.015625 
L 55.515625 43.015625 
L 55.515625 72.90625 
L 65.375 72.90625 
L 65.375 0 
L 55.515625 0 
L 55.515625 34.71875 
L 19.671875 34.71875 
L 19.671875 0 
L 9.8125 0 
z
" id="DejaVuSans-72"/>
      <path d="M 64.40625 67.28125 
L 64.40625 56.890625 
Q 59.421875 61.53125 53.78125 63.8125 
Q 48.140625 66.109375 41.796875 66.109375 
Q 29.296875 66.109375 22.65625 58.46875 
Q 16.015625 50.828125 16.015625 36.375 
Q 16.015625 21.96875 22.65625 14.328125 
Q 29.296875 6.6875 41.796875 6.6875 
Q 48.140625 6.6875 53.78125 8.984375 
Q 59.421875 11.28125 64.40625 15.921875 
L 64.40625 5.609375 
Q 59.234375 2.09375 53.4375 0.328125 
Q 47.65625 -1.421875 41.21875 -1.421875 
Q 24.65625 -1.421875 15.125 8.703125 
Q 5.609375 18.84375 5.609375 36.375 
Q 5.609375 53.953125 15.125 64.078125 
Q 24.65625 74.21875 41.21875 74.21875 
Q 47.75 74.21875 53.53125 72.484375 
Q 59.328125 70.75 64.40625 67.28125 
z
" id="DejaVuSans-67"/>
      <path d="M 50.984375 -16.609375 
L 50.984375 -23.578125 
L -0.984375 -23.578125 
L -0.984375 -16.609375 
z
" id="DejaVuSans-95"/>
      <path d="M 9.8125 72.90625 
L 19.671875 72.90625 
L 19.671875 42.09375 
L 52.390625 72.90625 
L 65.09375 72.90625 
L 28.90625 38.921875 
L 67.671875 0 
L 54.6875 0 
L 19.671875 35.109375 
L 19.671875 0 
L 9.8125 0 
z
" id="DejaVuSans-75"/>
     </defs>
     <g transform="translate(30.22 235.755937)rotate(-90)scale(0.1 -0.1)">
      <use xlink:href="#DejaVuSans-72"/>
      <use x="75.195312" xlink:href="#DejaVuSans-67"/>
      <use x="145.019531" xlink:href="#DejaVuSans-67"/>
      <use x="214.84375" xlink:href="#DejaVuSans-95"/>
      <use x="264.84375" xlink:href="#DejaVuSans-77"/>
      <use x="351.123047" xlink:href="#DejaVuSans-75"/>
     </g>
    </g>
   </g>
   <g id="patch_3">
    <path d="M 58.32 378 
L 58.32 51.84 
" style="fill:none;stroke:#000000;stroke-linecap:square;stroke-linejoin:miter;stroke-width:0.8;"/>
   </g>
   <g id="patch_4">
    <path d="M 384.48 378 
L 384.48 51.84 
" style="fill:none;stroke:#000000;stroke-linecap:square;stroke-linejoin:miter;stroke-width:0.8;"/>
   </g>
   <g id="patch_5">
    <path d="M 58.32 378 
L 384.48 378 
" style="fill:none;stroke:#000000;stroke-linecap:square;stroke-linejoin:miter;stroke-width:0.8;"/>
   </g>
   <g id="patch_6">
    <path d="M 58.32 51.84 
L 384.48 51.84 
" style="fill:none;stroke:#000000;stroke-linecap:square;stroke-linejoin:miter;stroke-width:0.8;"/>
   </g>
   <g id="text_13">
    <!-- MDA10 vs HCC_MK8 Fold Change Correlation -->
    <defs>
     <path id="DejaVuSans-32"/>
     <path d="M 2.984375 54.6875 
L 12.5 54.6875 
L 29.59375 8.796875 
L 46.6875 54.6875 
L 56.203125 54.6875 
L 35.6875 0 
L 23.484375 0 
z
" id="DejaVuSans-118"/>
     <path d="M 44.28125 53.078125 
L 44.28125 44.578125 
Q 40.484375 46.53125 36.375 47.5 
Q 32.28125 48.484375 27.875 48.484375 
Q 21.1875 48.484375 17.84375 46.4375 
Q 14.5 44.390625 14.5 40.28125 
Q 14.5 37.15625 16.890625 35.375 
Q 19.28125 33.59375 26.515625 31.984375 
L 29.59375 31.296875 
Q 39.15625 29.25 43.1875 25.515625 
Q 47.21875 21.78125 47.21875 15.09375 
Q 47.21875 7.46875 41.1875 3.015625 
Q 35.15625 -1.421875 24.609375 -1.421875 
Q 20.21875 -1.421875 15.453125 -0.5625 
Q 10.6875 0.296875 5.421875 2 
L 5.421875 11.28125 
Q 10.40625 8.6875 15.234375 7.390625 
Q 20.0625 6.109375 24.8125 6.109375 
Q 31.15625 6.109375 34.5625 8.28125 
Q 37.984375 10.453125 37.984375 14.40625 
Q 37.984375 18.0625 35.515625 20.015625 
Q 33.0625 21.96875 24.703125 23.78125 
L 21.578125 24.515625 
Q 13.234375 26.265625 9.515625 29.90625 
Q 5.8125 33.546875 5.8125 39.890625 
Q 5.8125 47.609375 11.28125 51.796875 
Q 16.75 56 26.8125 56 
Q 31.78125 56 36.171875 55.265625 
Q 40.578125 54.546875 44.28125 53.078125 
z
" id="DejaVuSans-115"/>
     <path d="M 31.78125 34.625 
Q 24.75 34.625 20.71875 30.859375 
Q 16.703125 27.09375 16.703125 20.515625 
Q 16.703125 13.921875 20.71875 10.15625 
Q 24.75 6.390625 31.78125 6.390625 
Q 38.8125 6.390625 42.859375 10.171875 
Q 46.921875 13.96875 46.921875 20.515625 
Q 46.921875 27.09375 42.890625 30.859375 
Q 38.875 34.625 31.78125 34.625 
z
M 21.921875 38.8125 
Q 15.578125 40.375 12.03125 44.71875 
Q 8.5 49.078125 8.5 55.328125 
Q 8.5 64.0625 14.71875 69.140625 
Q 20.953125 74.21875 31.78125 74.21875 
Q 42.671875 74.21875 48.875 69.140625 
Q 55.078125 64.0625 55.078125 55.328125 
Q 55.078125 49.078125 51.53125 44.71875 
Q 48 40.375 41.703125 38.8125 
Q 48.828125 37.15625 52.796875 32.3125 
Q 56.78125 27.484375 56.78125 20.515625 
Q 56.78125 9.90625 50.3125 4.234375 
Q 43.84375 -1.421875 31.78125 -1.421875 
Q 19.734375 -1.421875 13.25 4.234375 
Q 6.78125 9.90625 6.78125 20.515625 
Q 6.78125 27.484375 10.78125 32.3125 
Q 14.796875 37.15625 21.921875 38.8125 
z
M 18.3125 54.390625 
Q 18.3125 48.734375 21.84375 45.5625 
Q 25.390625 42.390625 31.78125 42.390625 
Q 38.140625 42.390625 41.71875 45.5625 
Q 45.3125 48.734375 45.3125 54.390625 
Q 45.3125 60.0625 41.71875 63.234375 
Q 38.140625 66.40625 31.78125 66.40625 
Q 25.390625 66.40625 21.84375 63.234375 
Q 18.3125 60.0625 18.3125 54.390625 
z
" id="DejaVuSans-56"/>
     <path d="M 9.8125 72.90625 
L 51.703125 72.90625 
L 51.703125 64.59375 
L 19.671875 64.59375 
L 19.671875 43.109375 
L 48.578125 43.109375 
L 48.578125 34.8125 
L 19.671875 34.8125 
L 19.671875 0 
L 9.8125 0 
z
" id="DejaVuSans-70"/>
     <path d="M 30.609375 48.390625 
Q 23.390625 48.390625 19.1875 42.75 
Q 14.984375 37.109375 14.984375 27.296875 
Q 14.984375 17.484375 19.15625 11.84375 
Q 23.34375 6.203125 30.609375 6.203125 
Q 37.796875 6.203125 41.984375 11.859375 
Q 46.1875 17.53125 46.1875 27.296875 
Q 46.1875 37.015625 41.984375 42.703125 
Q 37.796875 48.390625 30.609375 48.390625 
z
M 30.609375 56 
Q 42.328125 56 49.015625 48.375 
Q 55.71875 40.765625 55.71875 27.296875 
Q 55.71875 13.875 49.015625 6.21875 
Q 42.328125 -1.421875 30.609375 -1.421875 
Q 18.84375 -1.421875 12.171875 6.21875 
Q 5.515625 13.875 5.515625 27.296875 
Q 5.515625 40.765625 12.171875 48.375 
Q 18.84375 56 30.609375 56 
z
" id="DejaVuSans-111"/>
     <path d="M 9.421875 75.984375 
L 18.40625 75.984375 
L 18.40625 0 
L 9.421875 0 
z
" id="DejaVuSans-108"/>
     <path d="M 45.40625 46.390625 
L 45.40625 75.984375 
L 54.390625 75.984375 
L 54.390625 0 
L 45.40625 0 
L 45.40625 8.203125 
Q 42.578125 3.328125 38.25 0.953125 
Q 33.9375 -1.421875 27.875 -1.421875 
Q 17.96875 -1.421875 11.734375 6.484375 
Q 5.515625 14.40625 5.515625 27.296875 
Q 5.515625 40.1875 11.734375 48.09375 
Q 17.96875 56 27.875 56 
Q 33.9375 56 38.25 53.625 
Q 42.578125 51.265625 45.40625 46.390625 
z
M 14.796875 27.296875 
Q 14.796875 17.390625 18.875 11.75 
Q 22.953125 6.109375 30.078125 6.109375 
Q 37.203125 6.109375 41.296875 11.75 
Q 45.40625 17.390625 45.40625 27.296875 
Q 45.40625 37.203125 41.296875 42.84375 
Q 37.203125 48.484375 30.078125 48.484375 
Q 22.953125 48.484375 18.875 42.84375 
Q 14.796875 37.203125 14.796875 27.296875 
z
" id="DejaVuSans-100"/>
     <path d="M 54.890625 33.015625 
L 54.890625 0 
L 45.90625 0 
L 45.90625 32.71875 
Q 45.90625 40.484375 42.875 44.328125 
Q 39.84375 48.1875 33.796875 48.1875 
Q 26.515625 48.1875 22.3125 43.546875 
Q 18.109375 38.921875 18.109375 30.90625 
L 18.109375 0 
L 9.078125 0 
L 9.078125 75.984375 
L 18.109375 75.984375 
L 18.109375 46.1875 
Q 21.34375 51.125 25.703125 53.5625 
Q 30.078125 56 35.796875 56 
Q 45.21875 56 50.046875 50.171875 
Q 54.890625 44.34375 54.890625 33.015625 
z
" id="DejaVuSans-104"/>
     <path d="M 34.28125 27.484375 
Q 23.390625 27.484375 19.1875 25 
Q 14.984375 22.515625 14.984375 16.5 
Q 14.984375 11.71875 18.140625 8.90625 
Q 21.296875 6.109375 26.703125 6.109375 
Q 34.1875 6.109375 38.703125 11.40625 
Q 43.21875 16.703125 43.21875 25.484375 
L 43.21875 27.484375 
z
M 52.203125 31.203125 
L 52.203125 0 
L 43.21875 0 
L 43.21875 8.296875 
Q 40.140625 3.328125 35.546875 0.953125 
Q 30.953125 -1.421875 24.3125 -1.421875 
Q 15.921875 -1.421875 10.953125 3.296875 
Q 6 8.015625 6 15.921875 
Q 6 25.140625 12.171875 29.828125 
Q 18.359375 34.515625 30.609375 34.515625 
L 43.21875 34.515625 
L 43.21875 35.40625 
Q 43.21875 41.609375 39.140625 45 
Q 35.0625 48.390625 27.6875 48.390625 
Q 23 48.390625 18.546875 47.265625 
Q 14.109375 46.140625 10.015625 43.890625 
L 10.015625 52.203125 
Q 14.9375 54.109375 19.578125 55.046875 
Q 24.21875 56 28.609375 56 
Q 40.484375 56 46.34375 49.84375 
Q 52.203125 43.703125 52.203125 31.203125 
z
" id="DejaVuSans-97"/>
     <path d="M 54.890625 33.015625 
L 54.890625 0 
L 45.90625 0 
L 45.90625 32.71875 
Q 45.90625 40.484375 42.875 44.328125 
Q 39.84375 48.1875 33.796875 48.1875 
Q 26.515625 48.1875 22.3125 43.546875 
Q 18.109375 38.921875 18.109375 30.90625 
L 18.109375 0 
L 9.078125 0 
L 9.078125 54.6875 
L 18.109375 54.6875 
L 18.109375 46.1875 
Q 21.34375 51.125 25.703125 53.5625 
Q 30.078125 56 35.796875 56 
Q 45.21875 56 50.046875 50.171875 
Q 54.890625 44.34375 54.890625 33.015625 
z
" id="DejaVuSans-110"/>
     <path d="M 45.40625 27.984375 
Q 45.40625 37.75 41.375 43.109375 
Q 37.359375 48.484375 30.078125 48.484375 
Q 22.859375 48.484375 18.828125 43.109375 
Q 14.796875 37.75 14.796875 27.984375 
Q 14.796875 18.265625 18.828125 12.890625 
Q 22.859375 7.515625 30.078125 7.515625 
Q 37.359375 7.515625 41.375 12.890625 
Q 45.40625 18.265625 45.40625 27.984375 
z
M 54.390625 6.78125 
Q 54.390625 -7.171875 48.1875 -13.984375 
Q 42 -20.796875 29.203125 -20.796875 
Q 24.46875 -20.796875 20.265625 -20.09375 
Q 16.0625 -19.390625 12.109375 -17.921875 
L 12.109375 -9.1875 
Q 16.0625 -11.328125 19.921875 -12.34375 
Q 23.78125 -13.375 27.78125 -13.375 
Q 36.625 -13.375 41.015625 -8.765625 
Q 45.40625 -4.15625 45.40625 5.171875 
L 45.40625 9.625 
Q 42.625 4.78125 38.28125 2.390625 
Q 33.9375 0 27.875 0 
Q 17.828125 0 11.671875 7.65625 
Q 5.515625 15.328125 5.515625 27.984375 
Q 5.515625 40.671875 11.671875 48.328125 
Q 17.828125 56 27.875 56 
Q 33.9375 56 38.28125 53.609375 
Q 42.625 51.21875 45.40625 46.390625 
L 45.40625 54.6875 
L 54.390625 54.6875 
z
" id="DejaVuSans-103"/>
     <path d="M 56.203125 29.59375 
L 56.203125 25.203125 
L 14.890625 25.203125 
Q 15.484375 15.921875 20.484375 11.0625 
Q 25.484375 6.203125 34.421875 6.203125 
Q 39.59375 6.203125 44.453125 7.46875 
Q 49.3125 8.734375 54.109375 11.28125 
L 54.109375 2.78125 
Q 49.265625 0.734375 44.1875 -0.34375 
Q 39.109375 -1.421875 33.890625 -1.421875 
Q 20.796875 -1.421875 13.15625 6.1875 
Q 5.515625 13.8125 5.515625 26.8125 
Q 5.515625 40.234375 12.765625 48.109375 
Q 20.015625 56 32.328125 56 
Q 43.359375 56 49.78125 48.890625 
Q 56.203125 41.796875 56.203125 29.59375 
z
M 47.21875 32.234375 
Q 47.125 39.59375 43.09375 43.984375 
Q 39.0625 48.390625 32.421875 48.390625 
Q 24.90625 48.390625 20.390625 44.140625 
Q 15.875 39.890625 15.1875 32.171875 
z
" id="DejaVuSans-101"/>
     <path d="M 41.109375 46.296875 
Q 39.59375 47.171875 37.8125 47.578125 
Q 36.03125 48 33.890625 48 
Q 26.265625 48 22.1875 43.046875 
Q 18.109375 38.09375 18.109375 28.8125 
L 18.109375 0 
L 9.078125 0 
L 9.078125 54.6875 
L 18.109375 54.6875 
L 18.109375 46.1875 
Q 20.953125 51.171875 25.484375 53.578125 
Q 30.03125 56 36.53125 56 
Q 37.453125 56 38.578125 55.875 
Q 39.703125 55.765625 41.0625 55.515625 
z
" id="DejaVuSans-114"/>
     <path d="M 18.3125 70.21875 
L 18.3125 54.6875 
L 36.8125 54.6875 
L 36.8125 47.703125 
L 18.3125 47.703125 
L 18.3125 18.015625 
Q 18.3125 11.328125 20.140625 9.421875 
Q 21.96875 7.515625 27.59375 7.515625 
L 36.8125 7.515625 
L 36.8125 0 
L 27.59375 0 
Q 17.1875 0 13.234375 3.875 
Q 9.28125 7.765625 9.28125 18.015625 
L 9.28125 47.703125 
L 2.6875 47.703125 
L 2.6875 54.6875 
L 9.28125 54.6875 
L 9.28125 70.21875 
z
" id="DejaVuSans-116"/>
     <path d="M 9.421875 54.6875 
L 18.40625 54.6875 
L 18.40625 0 
L 9.421875 0 
z
M 9.421875 75.984375 
L 18.40625 75.984375 
L 18.40625 64.59375 
L 9.421875 64.59375 
z
" id="DejaVuSans-105"/>
    </defs>
    <g transform="translate(85.945313 45.84)scale(0.12 -0.12)">
     <use xlink:href="#DejaVuSans-77"/>
     <use x="86.279297" xlink:href="#DejaVuSans-68"/>
     <use x="163.265625" xlink:href="#DejaVuSans-65"/>
     <use x="231.673828" xlink:href="#DejaVuSans-49"/>
     <use x="295.296875" xlink:href="#DejaVuSans-48"/>
     <use x="358.919922" xlink:href="#DejaVuSans-32"/>
     <use x="390.707031" xlink:href="#DejaVuSans-118"/>
     <use x="449.886719" xlink:href="#DejaVuSans-115"/>
     <use x="501.986328" xlink:href="#DejaVuSans-32"/>
     <use x="533.773438" xlink:href="#DejaVuSans-72"/>
     <use x="608.96875" xlink:href="#DejaVuSans-67"/>
     <use x="678.792969" xlink:href="#DejaVuSans-67"/>
     <use x="748.617188" xlink:href="#DejaVuSans-95"/>
     <use x="798.617188" xlink:href="#DejaVuSans-77"/>
     <use x="884.896484" xlink:href="#DejaVuSans-75"/>
     <use x="950.472656" xlink:href="#DejaVuSans-56"/>
     <use x="1014.095703" xlink:href="#DejaVuSans-32"/>
     <use x="1045.882812" xlink:href="#DejaVuSans-70"/>
     <use x="1103.355469" xlink:href="#DejaVuSans-111"/>
     <use x="1164.537109" xlink:href="#DejaVuSans-108"/>
     <use x="1192.320312" xlink:href="#DejaVuSans-100"/>
     <use x="1255.796875" xlink:href="#DejaVuSans-32"/>
     <use x="1287.583984" xlink:href="#DejaVuSans-67"/>
     <use x="1357.408203" xlink:href="#DejaVuSans-104"/>
     <use x="1420.787109" xlink:href="#DejaVuSans-97"/>
     <use x="1482.066406" xlink:href="#DejaVuSans-110"/>
     <use x="1545.445312" xlink:href="#DejaVuSans-103"/>
     <use x="1608.921875" xlink:href="#DejaVuSans-101"/>
     <use x="1670.445312" xlink:href="#DejaVuSans-32"/>
     <use x="1702.232422" xlink:href="#DejaVuSans-67"/>
     <use x="1772.056641" xlink:href="#DejaVuSans-111"/>
     <use x="1833.238281" xlink:href="#DejaVuSans-114"/>
     <use x="1874.335938" xlink:href="#DejaVuSans-114"/>
     <use x="1915.417969" xlink:href="#DejaVuSans-101"/>
     <use x="1976.941406" xlink:href="#DejaVuSans-108"/>
     <use x="2004.724609" xlink:href="#DejaVuSans-97"/>
     <use x="2066.003906" xlink:href="#DejaVuSans-116"/>
     <use x="2105.212891" xlink:href="#DejaVuSans-105"/>
     <use x="2132.996094" xlink:href="#DejaVuSans-111"/>
     <use x="2194.177734" xlink:href="#DejaVuSans-110"/>
    </g>
   </g>
  </g>
 </g>
 <defs>
  <clipPath id="pb9a5720ba3">
   <rect height="326.16" width="326.16" x="58.32" y="51.84"/>
  </clipPath>
 </defs>
</svg>
